<svg id="controller" xmlns="http://www.w3.org/2000/svg" xmlns:xlink="http://www.w3.org/1999/xlink" width="31.016" height="35.42" viewBox="0 0 31.016 35.42">
  <defs>
    <clipPath id="clip-path">
      <rect id="Rectangle_937" data-name="Rectangle 937" width="31.016" height="35.42" fill="currentColor"/>
    </clipPath>
  </defs>
  <g id="Group_1485" data-name="Group 1485" clip-path="url(#clip-path)">
    <path id="Path_410" data-name="Path 410" d="M85.416,26.521a9.451,9.451,0,0,0,1.209,4.6c.267.483.673.645,1.075.423a.759.759,0,0,0,.231-1.107,8.068,8.068,0,0,1,0-7.929.758.758,0,0,0-.239-1.1.749.749,0,0,0-1.055.4,9.91,9.91,0,0,0-1.223,4.723m19.2-.037a9.668,9.668,0,0,0-1.255-4.751.728.728,0,0,0-1.025-.332.735.735,0,0,0-.277,1.014c.094.2.207.385.3.585a8.071,8.071,0,0,1-.252,7.438.745.745,0,1,0,1.294.7,9.678,9.678,0,0,0,1.22-4.658M91.677,22.719a2.7,2.7,0,0,0-.566.394,5.149,5.149,0,0,0,.034,6.765.74.74,0,0,0,1.049.106.731.731,0,0,0,.1-1.023c-.06-.084-.132-.16-.194-.243a3.641,3.641,0,0,1-.694-2.965,3.725,3.725,0,0,1,.86-1.743.7.7,0,0,0,.116-.8.9.9,0,0,0-.708-.487m8.5,3.77a5.176,5.176,0,0,0-1.227-3.36.757.757,0,0,0-1.091-.187.748.748,0,0,0-.07,1.1,4.8,4.8,0,0,1,.544.835,3.61,3.61,0,0,1-.468,3.924c-.366.474-.378.889-.018,1.185s.8.2,1.179-.274a5.115,5.115,0,0,0,1.152-3.225" transform="translate(-79.507 -19.829)" fill="currentColor"/>
    <path id="Path_411" data-name="Path 411" d="M4.58,114.817a6.268,6.268,0,0,1-2.149-.8,4.952,4.952,0,0,1-2.4-4.235C-.013,106.258,0,102.73.021,99.2a5.157,5.157,0,0,1,5.247-5.052c3.009-.008,6.017,0,9.026,0h.474c0-.149,0-.28,0-.412q0-3.717,0-7.435c0-.643.267-1,.742-1s.746.359.746,1q0,3.7,0,7.4v.451h.471q4.513,0,9.026,0a5.115,5.115,0,0,1,4.928,3.4,5.3,5.3,0,0,1,.312,1.686q.042,5.239.011,10.478a5.15,5.15,0,0,1-4.371,5.039,1.185,1.185,0,0,0-.19.063Zm10.931-19.18c-3.424,0-6.848-.007-10.272,0a3.643,3.643,0,0,0-3.747,3.666q-.037,5.187,0,10.375A3.581,3.581,0,0,0,4.808,113.3c1.353.1,2.718.034,4.078.053a.518.518,0,0,0,.5-.265c.667-1.023,1.358-2.03,2.027-3.051a2.308,2.308,0,0,1,2.087-1.12c1.326.015,2.652.02,3.977,0a2.365,2.365,0,0,1,2.167,1.17c.657,1.016,1.341,2.014,2,3.026a.467.467,0,0,0,.448.241c1.187-.009,2.375,0,3.562,0a3.711,3.711,0,0,0,3.875-3.872q0-5,0-9.995a4.41,4.41,0,0,0-.088-.926,3.646,3.646,0,0,0-3.663-2.914c-3.424-.007-6.848,0-10.272,0m-4.5,17.681h9.016c-.6-.9-1.158-1.777-1.766-2.613a.964.964,0,0,0-.682-.3c-1.37-.028-2.742-.009-4.112-.017a.853.853,0,0,0-.78.414c-.371.569-.752,1.131-1.128,1.7l-.547.821" transform="translate(0 -79.397)" fill="currentColor"/>
    <path id="Path_412" data-name="Path 412" d="M23.764,0c.573.364.641.635.355,1.266a12.516,12.516,0,0,0,0,10.763,1.54,1.54,0,0,1,.16.555.727.727,0,0,1-1.4.254,22.26,22.26,0,0,1-.955-2.548,13.718,13.718,0,0,1,.858-9.63A3.246,3.246,0,0,1,23.349,0Z" transform="translate(-19.945)" fill="currentColor"/>
    <path id="Path_413" data-name="Path 413" d="M386.648,0a3.151,3.151,0,0,1,.562.659,13.879,13.879,0,0,1,0,11.993,1.871,1.871,0,0,1-.179.334.729.729,0,0,1-1.293-.607,2.143,2.143,0,0,1,.139-.351,12.512,12.512,0,0,0,0-10.762c-.287-.634-.217-.9.355-1.266Z" transform="translate(-359.029)" fill="currentColor"/>
    <path id="Path_414" data-name="Path 414" d="M85.415,26.524A9.911,9.911,0,0,1,86.638,21.8a.749.749,0,0,1,1.055-.4.758.758,0,0,1,.239,1.1,8.068,8.068,0,0,0,0,7.929.759.759,0,0,1-.231,1.107c-.4.222-.808.06-1.075-.423a9.453,9.453,0,0,1-1.209-4.6" transform="translate(-79.506 -19.832)" fill="currentColor"/>
    <path id="Path_415" data-name="Path 415" d="M327.294,26.485a9.676,9.676,0,0,1-1.22,4.658.745.745,0,1,1-1.294-.7A8.071,8.071,0,0,0,325.032,23c-.089-.2-.2-.388-.3-.585a.736.736,0,1,1,1.3-.683,9.668,9.668,0,0,1,1.255,4.751" transform="translate(-302.182 -19.83)" fill="currentColor"/>
    <path id="Path_416" data-name="Path 416" d="M151.491,41.787a.9.9,0,0,1,.708.487.7.7,0,0,1-.116.8,3.724,3.724,0,0,0-.861,1.743,3.641,3.641,0,0,0,.694,2.965c.062.083.134.159.194.243a.73.73,0,0,1-.1,1.023.74.74,0,0,1-1.049-.105,5.149,5.149,0,0,1-.034-6.765,2.7,2.7,0,0,1,.566-.394" transform="translate(-139.321 -38.896)" fill="currentColor"/>
    <path id="Path_417" data-name="Path 417" d="M263.878,46.423a5.115,5.115,0,0,1-1.152,3.225c-.379.47-.817.572-1.179.274s-.348-.711.018-1.185a3.61,3.61,0,0,0,.468-3.924,4.8,4.8,0,0,0-.544-.835.748.748,0,0,1,.07-1.1.757.757,0,0,1,1.091.187,5.176,5.176,0,0,1,1.227,3.36" transform="translate(-243.208 -39.763)" fill="currentColor"/>
    <path id="Path_418" data-name="Path 418" d="M263.057,257.689c.206-.419.4-.823.6-1.222a.74.74,0,1,1,1.324.641c-.195.415-.4.826-.6,1.234a5.226,5.226,0,0,1,1.243,7.262,5.166,5.166,0,0,1-9.057-4.779,5.215,5.215,0,0,1,6.483-3.136m-.693,1.386a3.638,3.638,0,0,0-4.376,2.194,3.689,3.689,0,0,0,6.739,2.985,3.565,3.565,0,0,0-1.038-4.491c-.5,1.023-1,2.046-1.5,3.066a.747.747,0,1,1-1.323-.655c.452-.932.909-1.861,1.363-2.791.049-.1.09-.2.136-.308" transform="translate(-238.533 -238.261)" fill="currentColor"/>
    <path id="Path_419" data-name="Path 419" d="M48.637,257.484c.484.161.935.271,1.353.456a5.168,5.168,0,1,1-3.154-.331c.276-.055.371-.161.337-.429a2.45,2.45,0,0,1,0-.449.727.727,0,0,1,.734-.717.737.737,0,0,1,.728.728c.011.252,0,.505,0,.742m0,1.586v3.207c0,.115,0,.231,0,.346a.748.748,0,0,1-.724.772.73.73,0,0,1-.739-.75c-.01-1.072,0-2.144-.006-3.216,0-.119-.012-.239-.019-.361a3.7,3.7,0,1,0,1.489,0" transform="translate(-39.768 -238.303)" fill="currentColor"/>
  </g>
</svg>
